<?xml version="1.0" standalone="no"?>
<!DOCTYPE svg PUBLIC "-//W3C//DTD SVG 20010904//EN"
 "http://www.w3.org/TR/2001/REC-SVG-20010904/DTD/svg10.dtd">
<svg version="1.0" xmlns="http://www.w3.org/2000/svg"
 width="768.000000pt" height="768.000000pt" viewBox="0 0 768.000000 768.000000"
 preserveAspectRatio="xMidYMid meet">

<g transform="translate(0.000000,768.000000) scale(0.100000,-0.100000)"
fill="#000000" stroke="none">
<path d="M0 3840 l0 -3840 3840 0 3840 0 0 3840 0 3840 -3840 0 -3840 0 0
-3840z m3410 994 c0 -3 -216 -441 -481 -972 -265 -532 -490 -986 -501 -1009
l-19 -43 -145 0 c-88 0 -144 4 -142 10 2 5 230 461 508 1014 l505 1006 138 0
c75 0 137 -3 137 -6z m930 -256 l0 -263 -200 -200 -200 -200 0 456 c0 251 3
458 6 462 3 3 93 6 200 7 l194 0 0 -262z m1310 255 c0 -4 -66 -74 -148 -157
-81 -83 -299 -307 -486 -498 l-338 -348 269 -277 c148 -153 369 -381 492 -508
l222 -230 -273 -3 -273 -2 -125 127 c-69 71 -244 250 -388 398 l-262 270 0
-397 0 -398 -200 0 -200 0 0 410 0 410 554 568 c618 633 613 628 641 635 32 7
515 8 515 0z m-2057 -806 c76 -45 117 -121 117 -218 0 -138 -102 -238 -243
-239 -70 0 -112 16 -165 65 -129 116 -85 339 80 408 61 24 153 18 211 -16z"/>
</g>
</svg>
