<?xml version="1.0" standalone="no"?>
<!DOCTYPE svg PUBLIC "-//W3C//DTD SVG 20010904//EN"
 "http://www.w3.org/TR/2001/REC-SVG-20010904/DTD/svg10.dtd">
<svg version="1.0" xmlns="http://www.w3.org/2000/svg"
 width="768.000000pt" height="768.000000pt" viewBox="0 0 768.000000 768.000000"
 preserveAspectRatio="xMidYMid meet">

<g transform="translate(0.000000,768.000000) scale(0.100000,-0.100000)"
fill="#000000" stroke="none">
<path d="M2627 3831 c-279 -554 -507 -1011 -507 -1015 0 -3 64 -6 143 -6 l143
0 502 1010 c276 555 502 1012 502 1015 0 3 -62 5 -138 5 l-138 0 -507 -1009z"/>
<path d="M3940 4378 l0 -463 200 200 200 200 0 262 0 263 -200 0 -200 0 0
-462z"/>
<path d="M4923 4638 c-110 -112 -377 -383 -592 -603 l-390 -400 -1 -412 0
-413 200 0 200 0 0 397 0 397 71 -69 c39 -39 213 -217 386 -397 l316 -328 275
0 275 0 -74 78 c-41 42 -262 272 -493 510 l-418 433 158 162 c400 407 809 829
812 838 2 5 -104 9 -260 9 l-264 0 -201 -202z"/>
<path d="M3362 4035 c-145 -74 -182 -259 -77 -382 54 -63 110 -86 200 -81 62
3 80 8 117 33 23 17 56 50 72 73 25 35 31 55 34 113 5 85 -13 141 -64 193 -49
51 -89 68 -164 73 -56 4 -73 1 -118 -22z"/>
</g>
</svg>
